<svg xmlns="http://www.w3.org/2000/svg" viewBox="0 0 48 48" role="img" aria-hidden="true">
  <path fill="#EA4335" d="M24 9.5c3.08 0 5.84 1.06 8.02 2.81l5.98-5.98C33.88 2.27 29.34 0.5 24 0.5 14.62 0.5 6.36 5.92 2.57 13.56l7.04 5.46C11.19 13.73 17.11 9.5 24 9.5Z"/>
  <path fill="#4285F4" d="M46.07 24.55c0-1.6-.14-3.14-.39-4.55H24v8.64h12.36c-.53 2.8-2.12 5.17-4.49 6.77l7.04 5.46c4.11-3.8 7.16-9.38 7.16-16.32Z"/>
  <path fill="#34A853" d="M10.61 28.1c-.5-1.47-.78-3.05-.78-4.68 0-1.62.28-3.2.78-4.67l-7.04-5.46C1.12 15.79.5 19.01.5 23.42c0 4.41.62 7.63 3.07 10.13l7.04-5.45Z"/>
  <path fill="#FBBC04" d="M24 46.34c5.84 0 10.74-1.92 14.32-5.28l-7.04-5.46c-1.93 1.3-4.43 2.07-7.28 2.07-6.89 0-12.81-4.22-14.39-10.01l-7.04 5.46C6.36 42.76 14.62 46.34 24 46.34Z"/>
</svg>
